<?xml version="1.0" encoding="UTF-8"?>
<svg version="1.1" xmlns="http://www.w3.org/2000/svg" width="2067" height="862">
<path d="M0 0 C0.825 -0.00773437 1.65 -0.01546875 2.5 -0.0234375 C5.66671074 0.48125702 7.39489535 1.49763003 10 3.375 C11.64648438 5.93334961 11.64648438 5.93334961 13.09375 9.02734375 C13.91588989 10.75754761 13.91588989 10.75754761 14.75463867 12.52270508 C15.33672045 13.7858343 15.91849883 15.04910338 16.5 16.3125 C17.12025944 17.63168783 17.7417821 18.95028237 18.36450195 20.26831055 C19.95890094 23.6527879 21.5355943 27.04515548 23.10552979 30.44104004 C24.44420966 33.33543857 25.79104537 36.22603516 27.13671875 39.1171875 C28.68079001 42.43958068 30.22239236 45.76304861 31.75854492 49.08911133 C36.537426 59.42734579 41.41782682 69.71615985 46.3125 80 C52.27534666 92.52985709 58.22320893 105.06625615 64.125 117.625 C64.44514069 118.30619904 64.76528137 118.98739807 65.09512329 119.6892395 C65.41476044 120.36937103 65.73439758 121.04950256 66.0637207 121.75024414 C66.71173919 123.1290747 67.35976982 124.50789956 68.0078125 125.88671875 C68.32902573 126.57018875 68.65023895 127.25365875 68.98118591 127.95783997 C73.99635202 138.62555036 79.03567019 149.28188677 84.07254028 159.93936157 C84.72659505 161.32402852 85.38014857 162.70893235 86.03317261 164.09408569 C87.77152625 167.78081193 89.51872317 171.46302942 91.27734375 175.14013672 C91.64915771 175.92110214 92.02097168 176.70206757 92.40405273 177.50669861 C93.12052738 179.01156072 93.83996988 180.51501434 94.56274414 182.01686096 C97 187.14937498 97 187.14937498 97 189.375 C97.66 189.375 98.32 189.375 99 189.375 C99.27223389 188.50762207 99.54446777 187.64024414 99.82495117 186.74658203 C100.95743639 183.49712829 102.28582413 180.51700336 103.80078125 177.4296875 C104.35902588 176.28483887 104.91727051 175.13999023 105.49243164 173.96044922 C105.78860382 173.35682556 106.084776 172.7532019 106.3899231 172.13128662 C107.98257549 168.88360545 109.56210495 165.62956862 111.140625 162.375 C111.46458755 161.70725555 111.78855011 161.03951111 112.12232971 160.35153198 C115.34746164 153.68695424 118.46280179 146.97385111 121.5625 140.25 C125.79189565 131.08342443 130.09971204 121.96078589 134.5 112.875 C138.92041471 103.74731176 143.24872906 94.58268057 147.5 85.375 C152.26801893 75.04811286 157.15255616 64.7843634 162.11181641 54.5480957 C165.82713186 46.86075188 169.45343206 39.1366575 173.03274536 31.38543701 C175.346391 26.37788933 177.67331895 21.37650008 180 16.375 C180.58467041 15.11308838 180.58467041 15.11308838 181.18115234 13.82568359 C182.12818644 11.7936807 183.09074142 9.77026368 184.0625 7.75 C184.79146484 6.21472656 184.79146484 6.21472656 185.53515625 4.6484375 C187.19664822 2.06980196 188.10208216 1.30422365 191 0.375 C196.24040847 -0.36693563 200.57105252 -0.46555734 205.1875 2.25 C207.83865187 6.82095149 207.89265609 10.18476848 207 15.375 C204.96678864 21.36082407 201.94088402 26.98075945 199.125 32.625 C198.30335065 34.30872485 197.48380863 35.99347952 196.66625977 37.67919922 C194.96711377 41.17852253 193.25902017 44.67325693 191.54443359 48.16503906 C187.9727472 55.45603997 184.51172138 62.79891309 181.04974365 70.14245605 C179.55593785 73.30877021 178.0566982 76.47249809 176.55743408 79.63623047 C171.51038377 90.28675929 166.47873387 100.9445553 161.44848633 111.60302734 C155.57933756 124.03870344 149.6941202 136.46670826 143.80340576 148.8921814 C139.07082695 158.87583948 134.35281571 168.86614781 129.65551758 178.86645508 C127.36336806 183.74608441 125.06439175 188.62248911 122.7646637 193.49855042 C120.94373883 197.36220864 119.13415854 201.23090994 117.33395386 205.10426331 C115.9804206 208.01066222 114.61398901 210.91099675 113.25 213.8125 C112.77256348 214.84930908 112.29512695 215.88611816 111.80322266 216.9543457 C111.13492432 218.36719849 111.13492432 218.36719849 110.453125 219.80859375 C109.88319824 221.03147095 109.88319824 221.03147095 109.30175781 222.27905273 C107.81253112 224.67684178 106.39617598 225.90249769 104 227.375 C101.16015625 227.84375 101.16015625 227.84375 98.0625 227.875 C96.53302734 227.92140625 96.53302734 227.92140625 94.97265625 227.96875 C90.92127674 227.15953885 89.69981221 225.47895873 87 222.375 C85.5126044 219.92610788 84.3217841 217.37586202 83.13671875 214.76953125 C82.78801224 214.02611984 82.43930573 213.28270844 82.08003235 212.51676941 C80.93903598 210.07827061 79.81337097 207.63301413 78.6875 205.1875 C77.88584076 203.46759742 77.08309031 201.74820308 76.27929688 200.02929688 C74.6357751 196.51108123 72.99787609 192.99033632 71.36474609 189.46728516 C68.26079728 182.77528542 65.11544332 176.10295371 61.96896362 169.43087769 C60.99055308 167.35495621 60.01369255 165.27831249 59.03735352 163.20141602 C54.08507771 152.66716104 49.1097743 142.14391188 44.125 131.625 C43.75086975 130.8354895 43.3767395 130.045979 42.99127197 129.23254395 C40.32814048 123.6130659 37.6641655 117.99398789 35 112.375 C30.1091777 102.05977324 25.21961697 91.74395797 20.33734131 81.42468262 C18.05483747 76.60099708 15.76821391 71.77928694 13.47921753 66.9586792 C11.96811382 63.77425866 10.46024221 60.58831531 8.95318604 57.40197754 C8.23917604 55.89408867 7.52382109 54.38683587 6.80706787 52.88024902 C5.8235549 50.81245116 4.8447964 48.74246919 3.8671875 46.671875 C3.31144043 45.49979492 2.75569336 44.32771484 2.18310547 43.12011719 C1 40.375 1 40.375 1 38.375 C0.34 38.375 -0.32 38.375 -1 38.375 C-1.2563623 39.20612305 -1.51272461 40.03724609 -1.77685547 40.89355469 C-3.13235554 44.75172455 -4.80219888 48.39798153 -6.5703125 52.078125 C-6.92335449 52.82030273 -7.27639648 53.56248047 -7.64013672 54.32714844 C-8.40117424 55.92605582 -9.16377866 57.52421816 -9.92779541 59.1217041 C-11.56064592 62.53591419 -13.18589994 65.95372288 -14.81173706 69.37127686 C-15.64900041 71.13094968 -16.48667057 72.89042901 -17.32473755 74.64971924 C-21.28414558 82.9626348 -25.20895973 91.29158798 -29.125 99.625 C-29.78340656 101.025247 -30.44185393 102.42547482 -31.1003418 103.82568359 C-32.41267388 106.61642417 -33.72475861 109.40728083 -35.03662109 112.19824219 C-38.33541105 119.21620177 -41.6361512 126.23324383 -44.9375 133.25 C-45.43035492 134.29758484 -45.43035492 134.29758484 -45.9331665 135.36633301 C-50.75756814 145.61999544 -55.59187047 155.86895009 -60.43237305 166.11502075 C-63.25918002 172.09887595 -66.08481909 178.08328277 -68.91046143 184.06768799 C-70.0311099 186.44088132 -71.15203087 188.81394584 -72.27294922 191.18701172 C-74.14061709 195.14148491 -76.00664507 199.09672845 -77.87158203 203.05249023 C-78.57532454 204.54459844 -79.27957866 206.03646546 -79.984375 207.52807617 C-80.95840206 209.58968873 -81.93059227 211.65215783 -82.90234375 213.71484375 C-83.45398193 214.88394287 -84.00562012 216.05304199 -84.57397461 217.25756836 C-85.79568199 219.92834074 -86.90924929 222.64812323 -88 225.375 C-96.58 225.375 -105.16 225.375 -114 225.375 C-113.17037538 221.22687691 -112.33509718 218.6573964 -110.515625 214.96484375 C-109.7412207 213.37833008 -109.7412207 213.37833008 -108.95117188 211.75976562 C-108.1090918 210.05336914 -108.1090918 210.05336914 -107.25 208.3125 C-106.05378513 205.86498361 -104.86250351 203.41508176 -103.671875 200.96484375 C-103.36612549 200.33661713 -103.06037598 199.7083905 -102.74536133 199.06112671 C-99.57843006 192.53845351 -96.53464966 185.96011561 -93.5 179.375 C-88.72771376 169.03672249 -83.83589106 158.76300191 -78.87280273 148.51513672 C-75.02242911 140.54625599 -71.27069669 132.53592261 -67.5625 124.5 C-62.85364527 114.29748143 -58.0237316 104.1600103 -53.11502075 94.05279541 C-48.81875006 85.20168012 -44.62131285 76.30921371 -40.5 67.375 C-35.46235626 56.45741296 -30.30473984 45.60454522 -25.03930664 34.79541016 C-22.3253156 29.21769065 -19.64178236 23.63333707 -17.0703125 17.98828125 C-16.62196045 17.0130249 -16.1736084 16.03776855 -15.71166992 15.03295898 C-14.889539 13.23731416 -14.07891193 11.43633631 -13.2824707 9.62915039 C-10.34616986 3.25096481 -7.45729407 -0.06991213 0 0 Z " fill="#363333" transform="translate(1065,317.625)"/>
<path d="M0 0 C1.2065625 -0.01933594 1.2065625 -0.01933594 2.4375 -0.0390625 C6.6129627 1.04299338 9.75884476 3.74856022 12.11517334 7.31097412 C13.14011243 9.25622432 14.06318114 11.22335352 14.9609375 13.23046875 C15.30827438 13.97397079 15.65561127 14.71747284 16.01347351 15.48350525 C17.14801706 17.92027245 18.26133376 20.36613037 19.375 22.8125 C20.17093888 24.53113436 20.96840637 26.24906154 21.76733398 27.96630859 C23.40099494 31.48227784 25.02706755 35.00159836 26.64697266 38.52392578 C29.75036666 45.26443866 32.9181613 51.97421574 36.08743286 58.68392944 C37.73153738 62.16762384 39.36922027 65.65433545 41.0078125 69.140625 C45.14163363 77.93152687 49.28842489 86.71628944 53.4375 95.5 C53.78965576 96.24556152 54.14181152 96.99112305 54.50463867 97.75927734 C57.0027613 103.04800803 59.50132464 108.33653044 62 113.625 C64.85447432 119.66652137 67.70868032 125.70816937 70.5625 131.75 C71.08324097 132.85235992 71.08324097 132.85235992 71.61450195 133.97698975 C75.60097609 142.41654408 79.58231968 150.85848341 83.5546875 159.3046875 C84.11025581 160.48588669 84.11025581 160.48588669 84.67704773 161.69094849 C86.45225485 165.46562416 88.22675856 169.24062846 90.00024414 173.01611328 C90.63426962 174.36491249 91.26830241 175.71370825 91.90234375 177.0625 C92.45398193 178.23683594 93.00562012 179.41117188 93.57397461 180.62109375 C94.40971158 182.38156416 95.27161467 184.13078441 96.19360352 185.84765625 C97 187.625 97 187.625 97 190.625 C97.66 190.625 98.32 190.625 99 190.625 C99.52980469 188.84029297 99.52980469 188.84029297 100.0703125 187.01953125 C102.12818387 180.85912401 105.02041954 175.11008342 107.8928833 169.29992676 C109.5922472 165.86106732 111.27225993 162.41277338 112.953125 158.96484375 C113.4663884 157.91322556 113.4663884 157.91322556 113.99002075 156.84036255 C117.29161344 150.0596005 120.46992931 143.22522039 123.625 136.375 C127.83275425 127.24963372 132.11982022 118.16888333 136.5 109.125 C140.92043151 99.99732016 145.24872923 90.83268019 149.5 81.625 C154.26636215 71.30170122 159.14755675 61.04068715 164.10742188 50.80908203 C166.96353295 44.90212503 169.77986267 38.97973962 172.53125 33.0234375 C172.96890686 32.0763089 172.96890686 32.0763089 173.41540527 31.11004639 C174.8160321 28.07535493 176.21092424 25.038233 177.59960938 21.99804688 C185.92853051 3.87917746 185.92853051 3.87917746 191 0.625 C195.85723364 -0.25167144 199.83334278 -0.08927993 204.0625 2.5 C207.01853469 5.74210256 207.55223853 8.2809788 207.48730469 12.69384766 C206.3589866 19.48071486 202.6577891 25.6982036 199.625 31.8125 C198.85175542 33.40454307 198.08038898 34.99749954 197.31079102 36.59130859 C195.69825129 39.92672266 194.0774385 43.25792293 192.45068359 46.58642578 C188.92351215 53.81840855 185.49378595 61.09630886 182.05999756 68.37295532 C180.55346133 71.56325529 179.0420502 74.75123607 177.53082275 77.9393158 C173.00287191 87.49291492 168.49746781 97.05702092 164 106.625 C156.51654936 122.54469149 148.98985347 138.44370944 141.45352173 154.33842468 C138.33422586 160.91794648 135.21954495 167.49964545 132.10620117 174.08198547 C130.19303225 178.12621255 128.27823262 182.16965019 126.359375 186.21118164 C125.99303955 186.98279129 125.6267041 187.75440094 125.24926758 188.5493927 C124.52650689 190.0717084 123.80368885 191.59399686 123.08081055 193.11625671 C121.11104107 197.26843605 119.15476859 201.42650399 117.2147522 205.59266663 C115.85820253 208.50242075 114.49015225 211.40677408 113.125 214.3125 C112.42044678 215.8445105 112.42044678 215.8445105 111.70166016 217.4074707 C111.26644043 218.32874756 110.8312207 219.25002441 110.3828125 220.19921875 C109.83197998 221.38390747 109.83197998 221.38390747 109.27001953 222.5925293 C107.39570298 225.59208433 105.24753369 227.26661759 101.8515625 228.2421875 C100.74941406 228.36980469 100.74941406 228.36980469 99.625 228.5 C98.89539062 228.60054687 98.16578125 228.70109375 97.4140625 228.8046875 C93.96254868 228.5477787 91.89994841 227.50667547 89 225.625 C87.19140625 222.921875 87.19140625 222.921875 85.5625 219.375 C84.88058803 217.92690447 84.19825768 216.47900593 83.515625 215.03125 C83.12826172 214.19335938 82.74089844 213.35546875 82.34179688 212.4921875 C80.79932851 209.19619979 79.20840099 205.92502163 77.609375 202.65625 C70.84378666 188.80870776 64.22972436 174.90060527 57.7746582 160.90527344 C54.09441501 152.93976926 50.32474103 145.02205296 46.5 137.125 C41.51616955 126.83396649 36.66804596 116.48656109 31.875 106.10546875 C28.15878763 98.07451942 24.35652698 90.08942776 20.5 82.125 C16.13196129 73.09433548 11.81099854 64.04351175 7.56982422 54.95263672 C6.98504311 53.6999042 6.39895778 52.44777961 5.81152344 51.19628906 C4.99935299 49.46471555 4.1928924 47.73046733 3.38671875 45.99609375 C2.69388794 44.5100061 2.69388794 44.5100061 1.98706055 42.99389648 C1 40.625 1 40.625 1 38.625 C0.34 38.625 -0.32 38.625 -1 38.625 C-1.26087402 39.46514648 -1.52174805 40.30529297 -1.79052734 41.17089844 C-3.08499028 44.86772154 -4.66188786 48.36405937 -6.3515625 51.890625 C-6.68236313 52.58832001 -7.01316376 53.28601501 -7.35398865 54.00485229 C-8.44124212 56.29638042 -9.53317445 58.58564727 -10.625 60.875 C-11.39289031 62.49183788 -12.16038081 64.1088657 -12.92749023 65.72607422 C-14.50926423 69.06044467 -16.0923742 72.39417583 -17.67626953 75.72753906 C-20.82793526 82.36487369 -23.95590835 89.01331239 -27.08148193 95.66296387 C-28.40090153 98.46992172 -29.72122948 101.27645196 -31.04150391 104.08300781 C-32.0331429 106.19103252 -33.02464012 108.29912386 -34.01611328 110.40722656 C-37.67647822 118.18964439 -41.33909507 125.9710028 -45.00128174 133.75256348 C-46.00217028 135.8793067 -47.00304414 138.00605683 -48.00390625 140.1328125 C-48.49920837 141.18529175 -48.49920837 141.18529175 -49.0045166 142.2590332 C-50.99486396 146.48855171 -52.98470889 150.71830617 -54.97413635 154.94825745 C-56.298114 157.76328267 -57.62225549 160.57823081 -58.94644165 163.39315796 C-59.60418807 164.79142862 -60.26188304 166.18972349 -60.91952515 167.58804321 C-64.83033082 175.90292796 -68.74944152 184.21381632 -72.6796875 192.51953125 C-73.46102251 194.171385 -74.24235392 195.82324046 -75.02368164 197.47509766 C-76.51622405 200.63040235 -78.01044697 203.78490374 -79.50561523 206.93896484 C-80.18739508 208.37985545 -80.86911991 209.82077208 -81.55078125 211.26171875 C-81.85631927 211.9050264 -82.1618573 212.54833405 -82.47665405 213.21113586 C-84.41685012 217.31694595 -86.20867427 221.44523996 -88 225.625 C-96.58 225.625 -105.16 225.625 -114 225.625 C-113.14179573 221.33397863 -112.19239101 218.61953143 -110.296875 214.77734375 C-109.73548828 213.62943359 -109.17410156 212.48152344 -108.59570312 211.29882812 C-108.29543213 210.69111572 -107.99516113 210.08340332 -107.68579102 209.45727539 C-106.07470174 206.19516638 -104.48323163 202.92350579 -102.890625 199.65234375 C-102.56336426 198.98109467 -102.23610352 198.30984558 -101.89892578 197.61825562 C-98.67718418 190.99433655 -95.58039158 184.31585054 -92.5 177.625 C-87.81352825 167.46312426 -83.00326532 157.36779616 -78.11474609 147.30224609 C-73.81856941 138.45131555 -69.62110803 129.55908092 -65.5 120.625 C-61.09579893 111.07720644 -56.5933074 101.58278768 -52 92.125 C-46.82945717 81.47841066 -41.79484042 70.77483438 -36.83520508 60.02807617 C-32.49965249 50.65278258 -28.05283011 41.33446307 -23.53857422 32.04394531 C-21.17036387 27.16527233 -18.82423597 22.28602956 -16.6171875 17.33203125 C-16.26374268 16.54658936 -15.91029785 15.76114746 -15.54614258 14.9519043 C-14.9206421 13.55170852 -14.30707923 12.14607211 -13.7097168 10.73364258 C-11.03413207 4.77313484 -7.009265 -0.11232796 0 0 Z " fill="#19BBE7" transform="translate(1339,316.375)"/>
<path d="M0 0 C14.11766218 -0.0703528 28.23529683 -0.122916 42.35309887 -0.15543652 C48.90953364 -0.17104974 55.4658501 -0.19220849 62.0222168 -0.22631836 C68.35701462 -0.25906686 74.6916991 -0.27688564 81.02657509 -0.28463173 C83.43572077 -0.2901475 85.8448607 -0.30091802 88.25395775 -0.31719017 C109.11304288 -0.45239717 126.92300658 0.63738246 142.83642578 15.69165039 C156.34551416 29.05922355 161.95131197 46.12943564 162.375 64.9375 C162.10324406 84.39995114 155.89235353 101.7518923 142.171875 115.8828125 C133.7656252 123.77648609 122.48447431 129.56444071 111 131 C114.88415748 137.05991939 119.04773203 142.68911802 123.6875 148.1875 C124.92831772 149.67605525 126.16788561 151.16565314 127.40625 152.65625 C128.0146875 153.3884375 128.623125 154.120625 129.25 154.875 C131.77631773 157.94267153 134.24056765 161.05633534 136.6875 164.1875 C137.1306958 164.7544458 137.5738916 165.3213916 138.03051758 165.90551758 C139.35499165 167.6026592 140.67756641 169.30126816 142 171 C143.78909124 173.29368987 145.58082192 175.58528702 147.375 177.875 C147.82528564 178.44976074 148.27557129 179.02452148 148.73950195 179.61669922 C152.23210958 184.05892686 155.79628401 188.43952407 159.375 192.8125 C164.68228595 199.29838485 169.81185179 205.90578345 174.86279297 212.59301758 C175.63260498 213.61045044 175.63260498 213.61045044 176.41796875 214.6484375 C176.86938232 215.24833496 177.3207959 215.84823242 177.78588867 216.46630859 C179.06206609 218.13908286 179.06206609 218.13908286 181 220 C181 221.32 181 222.64 181 224 C159.50790089 226.67863405 159.50790089 226.67863405 152.57177734 222.55712891 C148.37311915 218.72831641 145.37073032 214.08274188 142.41894531 209.26123047 C140.33865225 205.94607658 137.9044654 202.96865929 135.4375 199.9375 C134.54868559 198.80241912 133.66198059 197.66568347 132.77734375 196.52734375 C129.73516115 192.64382293 126.61947055 188.82152283 123.5 185 C118.99232786 179.47666343 114.55157233 173.90815403 110.1640625 168.2890625 C106.13011844 163.13587385 102.00074581 158.06330178 97.86230469 152.99389648 C93.62548998 147.79445816 89.46269217 142.54059908 85.33789062 137.25195312 C83.27475845 134.53469728 83.27475845 134.53469728 81 132 C79.12903889 131.87655973 77.25349072 131.82207606 75.37866211 131.79467773 C74.17749252 131.77473251 72.97632294 131.75478729 71.73875427 131.73423767 C70.4314888 131.71752518 69.12422333 131.70081268 67.77734375 131.68359375 C66.43355153 131.66303042 65.08976588 131.64203412 63.74598694 131.62062073 C60.20325013 131.56533581 56.66045433 131.51595502 53.11761475 131.46777344 C49.5047885 131.41760513 45.89204828 131.36189475 42.27929688 131.30664062 C35.18627253 131.19898063 28.09317112 131.0975532 21 131 C21.00666183 132.09136765 21.01332367 133.18273529 21.02018738 134.30717468 C21.08100188 144.59217056 21.12597431 154.87712995 21.15543652 165.16226482 C21.17109253 170.44996827 21.1923298 175.73752657 21.22631836 181.02514648 C21.25891385 186.1279779 21.2768535 191.23066969 21.28463173 196.33359718 C21.29017488 198.28045665 21.30099925 200.22730847 21.31719017 202.17410851 C21.33896687 204.90098969 21.34196681 207.6272939 21.34057617 210.35424805 C21.351362 211.15913666 21.36214783 211.96402527 21.3732605 212.79330444 C21.34795396 217.3791635 20.8925279 220.38108859 18 224 C14.84905867 226.10062755 13.7775634 226.34313286 10.125 226.4375 C9.28195312 226.47746094 8.43890625 226.51742187 7.5703125 226.55859375 C3.7350708 225.72509897 2.40944726 224.06844793 0 221 C-0.71624255 217.99941729 -0.65421831 215.08178729 -0.60127258 212.00871277 C-0.60554471 211.10197557 -0.60981683 210.19523838 -0.61421841 209.2610243 C-0.62245595 206.22193528 -0.59495042 203.18422558 -0.56762695 200.14526367 C-0.56621665 197.96721428 -0.56700811 195.78916251 -0.56983948 193.6111145 C-0.57127572 187.69610221 -0.54185169 181.78159554 -0.50696969 175.86670089 C-0.47574115 169.68608768 -0.4727782 163.50546325 -0.46684265 157.32478333 C-0.45129397 145.61986069 -0.41025138 133.9151712 -0.3600952 122.21035129 C-0.30383282 108.88524775 -0.27672327 95.56014321 -0.25161803 82.23494756 C-0.19933664 54.82316906 -0.1113742 27.41159758 0 0 Z M21 20 C21 50.03 21 80.06 21 111 C41.9446875 111.12375 41.9446875 111.12375 63.3125 111.25 C67.70216064 111.28641602 72.09182129 111.32283203 76.61450195 111.36035156 C80.59004351 111.37373901 80.59004351 111.37373901 84.56559753 111.3817749 C86.32015556 111.38786985 88.07469807 111.40183875 89.82914734 111.42230225 C104.40719583 111.58366279 115.9434955 110.55885361 127 100 C137.0248725 89.22154939 140.71142134 75.49167391 140.3125 61.10546875 C139.63833806 49.0688692 134.40235556 37.82827723 125.625 29.625 C116.88041357 22.35981597 107.64127692 19.66606853 96.38085938 19.77294922 C95.13047756 19.77258761 95.13047756 19.77258761 93.85483551 19.7722187 C91.1843611 19.77369908 88.51417378 19.78887265 85.84375 19.8046875 C84.18392064 19.8076319 82.52408941 19.80966989 80.86425781 19.81079102 C74.74281003 19.82123236 68.62140213 19.84915489 62.5 19.875 C48.805 19.91625 35.11 19.9575 21 20 Z " fill="#343031" transform="translate(316,319)"/>
<path d="M0 0 C0.71128241 -0.00794881 1.42256481 -0.01589762 2.15540123 -0.02408731 C4.53361896 -0.04330393 6.90944763 -0.01972421 9.28759766 0.0038147 C10.99449551 -0.00104239 12.70138769 -0.00848227 14.40826416 -0.01831055 C19.04069142 -0.0371198 23.6722729 -0.01828664 28.30463409 0.00835371 C33.1523094 0.03098948 37.99994328 0.02276719 42.84765625 0.01885986 C50.98858455 0.0170941 59.12917972 0.03925153 67.27001953 0.07608032 C76.68197063 0.11841578 86.09343371 0.12543542 95.50546074 0.1129564 C104.55947183 0.10156665 113.61331105 0.1128632 122.66729736 0.1353035 C126.52047911 0.14459232 130.3735557 0.14634459 134.22674561 0.14213181 C138.76427951 0.13836416 143.30131681 0.15458692 147.83873749 0.18625259 C149.50400488 0.19473688 151.16932266 0.19644026 152.83460236 0.19087219 C155.10805305 0.18442393 157.380022 0.20259746 159.65332031 0.22705078 C160.92535309 0.23115652 162.19738586 0.23526226 163.50796509 0.23949242 C167.40355044 0.83691482 169.06273916 1.99128813 171.82666016 4.7484436 C172.67431641 6.86172485 172.67431641 6.86172485 172.88916016 9.0609436 C172.98326172 9.77895142 173.07736328 10.49695923 173.17431641 11.23672485 C172.31950826 17.41247357 167.76274444 22.2891197 163.76416016 26.8109436 C159.89224969 31.28607473 156.14146358 35.82282139 152.51416016 40.4984436 C147.72262409 46.66160258 142.78510558 52.69450345 137.81005859 58.71011353 C134.14337984 63.14497663 130.51589041 67.60630874 126.93603516 72.11172485 C124.15140398 75.59251383 121.33097388 79.04368406 118.51416016 82.4984436 C114.35410657 87.60219363 110.24693389 92.74082216 106.20166016 97.9359436 C102.23805875 103.02207589 98.13675731 107.96478477 93.94458008 112.86343384 C90.2261984 117.22797563 86.6816076 121.71083056 83.16259766 126.23672485 C78.88617355 131.71777546 74.46072506 137.0695721 70.02539062 142.42227173 C66.3273334 146.89603879 62.70187379 151.41634081 59.13916016 155.9984436 C55.20079678 161.06205366 51.12484028 165.98025278 46.953125 170.85269165 C42.75708491 175.77643346 38.77735279 180.85226706 34.82275391 185.97109985 C30.5886018 191.30933335 26.18860348 196.51411161 21.82666016 201.7484436 C96.07666016 202.2434436 96.07666016 202.2434436 171.82666016 202.7484436 C171.82666016 209.6784436 171.82666016 216.6084436 171.82666016 223.7484436 C149.11312663 223.79473627 126.39960445 223.83043018 103.68603325 223.85206795 C93.13979359 223.86238165 82.59358378 223.87644382 72.04736328 223.89932251 C62.85556141 223.91925345 53.66378116 223.93215935 44.47195828 223.93662059 C39.60472063 223.93922846 34.73754483 223.94536013 29.870327 223.95990372 C25.28871459 223.97348292 20.70718947 223.97766554 16.12555885 223.97465897 C14.44456444 223.97520898 12.7635671 223.9791844 11.0825901 223.98685455 C8.78557448 223.99682112 6.48888742 223.9944063 4.19186401 223.98895264 C2.90688459 223.99079622 1.62190517 223.99263981 0.29798698 223.99453926 C-4.20349966 223.67541163 -7.73410975 222.65743103 -11.54833984 220.2484436 C-13.68404837 216.96273818 -13.738435 214.4269437 -13.89990234 210.5765686 C-12.77231446 206.18746308 -10.01281645 203.2100252 -7.17333984 199.7484436 C-6.66706055 199.11680298 -6.16078125 198.48516235 -5.63916016 197.8343811 C-4.0995443 195.92107208 -2.54455956 194.02121226 -0.98583984 192.1234436 C3.21935359 186.98035367 7.37195097 181.80406796 11.45166016 176.5609436 C15.41506157 171.47466206 19.51657087 166.53209325 23.70874023 161.63345337 C27.4247488 157.27169707 30.96697636 152.79164564 34.48413086 148.26895142 C38.83664265 142.6912141 43.33455673 137.23850333 47.84326172 131.78677368 C51.50994047 127.35191058 55.1374299 122.89057847 58.71728516 118.38516235 C61.50191634 114.90437338 64.32234643 111.45320315 67.13916016 107.9984436 C71.29921374 102.89469358 75.40638642 97.75606505 79.45166016 92.5609436 C83.41526156 87.47481132 87.516563 82.53210244 91.70874023 77.63345337 C95.42712191 73.26891158 98.97171271 68.78605664 102.49072266 64.26016235 C106.18824686 59.52108203 109.99168279 54.876739 113.82666016 50.2484436 C118.70272195 44.36241652 123.4987556 38.42513353 128.18798828 32.3890686 C130.99668861 28.7772486 133.89172539 25.2572534 136.82666016 21.7484436 C136.0942854 21.74697704 135.36191065 21.74551048 134.60734272 21.74399948 C116.78846693 21.70695063 98.9697875 21.64796153 81.15106678 21.56454086 C72.53405761 21.52472851 63.91714006 21.49234721 55.30004883 21.47744751 C47.78953269 21.46444233 40.27921794 21.43750684 32.76881522 21.39383054 C28.79192646 21.37119 24.81528634 21.35553446 20.83832741 21.35655975 C17.09452244 21.35730485 13.35126762 21.33941529 9.60760498 21.30727577 C7.57968461 21.29470435 5.55167201 21.3018525 3.52372742 21.30958557 C2.31363007 21.29567276 1.10353271 21.28175995 -0.14323425 21.26742554 C-1.19315646 21.26373837 -2.24307867 21.26005119 -3.3248167 21.25625229 C-6.8956747 20.61967234 -8.57914156 19.23219144 -11.17333984 16.7484436 C-12.76369103 13.56774123 -12.96271432 10.1651391 -12.17333984 6.7484436 C-8.55418005 1.37482839 -6.72601623 -0.00177391 0 0 Z " fill="#13B9E6" transform="translate(1577.17333984375,318.2515563964844)"/>
<path d="M0 0 C1.64488403 -0.002062 1.64488403 -0.002062 3.32299805 -0.00416565 C4.5314035 -0.00057037 5.73980896 0.0030249 6.98483276 0.00672913 C8.25308899 0.0065831 9.52134521 0.00643707 10.82803345 0.00628662 C14.31128908 0.00599903 17.79451047 0.01188952 21.27775812 0.01886058 C24.91594425 0.02510055 28.55413112 0.02569843 32.19232178 0.02688599 C39.08421 0.0299974 45.97608242 0.03820824 52.86796367 0.04823548 C60.7130823 0.0594025 68.55820168 0.06490855 76.40332627 0.06993091 C92.54362312 0.080391 108.68390304 0.09818758 124.82418823 0.12025452 C124.82418823 6.72025452 124.82418823 13.32025452 124.82418823 20.12025452 C86.21418823 20.12025452 47.60418823 20.12025452 7.82418823 20.12025452 C7.82418823 47.18025452 7.82418823 74.24025452 7.82418823 102.12025452 C15.12930542 102.07384827 22.43442261 102.02744202 29.96090698 101.97962952 C34.58657222 101.95919335 39.21218186 101.93993771 43.83786011 101.92494202 C51.18132067 101.90102302 58.5245819 101.87271519 65.8678894 101.8184967 C71.78769428 101.77506161 77.70728541 101.75112201 83.62723732 101.74074554 C85.88671039 101.73335005 88.14617165 101.71890853 90.40555382 101.69733429 C93.56838716 101.66833211 96.73033529 101.66429728 99.89328003 101.66615295 C100.82907898 101.65177185 101.76487793 101.63739075 102.72903442 101.62257385 C106.96285476 101.64948388 109.21607159 101.74176888 112.88237 104.02363586 C115.88101412 107.26132984 116.21992674 109.65151879 116.17965698 114.08119202 C115.57778387 117.53369493 113.50595292 119.06215604 110.82418823 121.12025452 C108.07959575 122.03511868 106.48994156 122.24405094 103.66703796 122.24050903 C102.39872887 122.24257103 102.39872887 122.24257103 101.10479736 122.24467468 C100.18050934 122.24107941 99.25622131 122.23748413 98.30392456 122.23377991 C96.84023186 122.23399895 96.84023186 122.23399895 95.3469696 122.23422241 C92.11669707 122.23352489 88.88648196 122.22573996 85.65621948 122.21791077 C83.41848278 122.21604602 81.18074568 122.21462238 78.94300842 122.21362305 C73.04932531 122.20980236 67.15566679 122.19997587 61.26199341 122.18891907 C54.19267536 122.17689824 47.12334909 122.17230057 40.05402374 122.16646576 C29.31072813 122.15676391 18.56748649 122.13760418 7.82418823 122.12025452 C7.82418823 149.18025452 7.82418823 176.24025452 7.82418823 204.12025452 C46.43418823 204.12025452 85.04418823 204.12025452 124.82418823 204.12025452 C124.82418823 210.72025452 124.82418823 217.32025452 124.82418823 224.12025452 C79.61418823 224.12025452 34.40418823 224.12025452 -12.17581177 224.12025452 C-12.37732694 169.65294283 -12.37732694 169.65294283 -12.41995239 146.87220764 C-12.44964947 131.12708925 -12.48460781 115.38210439 -12.55300903 99.63710022 C-12.60279612 88.17135956 -12.63509147 76.70572697 -12.64625424 65.23988122 C-12.65278088 59.16699008 -12.66815309 53.09440816 -12.70446205 47.02161598 C-12.73834703 41.30806443 -12.74887974 35.59495009 -12.74135017 29.8813076 C-12.74272806 27.78222149 -12.75270485 25.68312106 -12.77183914 23.5841217 C-12.79665969 20.72142425 -12.79075695 17.86038471 -12.77708435 14.99765015 C-12.79164856 14.16398763 -12.80621276 13.3303251 -12.82121831 12.47140008 C-12.76547903 8.16389995 -12.56631653 6.60459997 -9.76323223 3.12791729 C-6.15729267 0.32995279 -4.49451177 -0.00432997 0 0 Z " fill="#2B2728" transform="translate(549.1758117675781,318.87974548339844)"/>
<path d="M0 0 C0.72058594 -0.01933594 1.44117188 -0.03867187 2.18359375 -0.05859375 C6.13477409 0.76537982 9.37506245 2.72300056 11.70347595 6.08491516 C12.77964011 8.10598069 13.73855436 10.1512829 14.671875 12.2421875 C15.21810768 13.4100177 15.21810768 13.4100177 15.77537537 14.60144043 C16.97014557 17.16482126 18.14105655 19.7383865 19.3125 22.3125 C20.14970931 24.11880845 20.9886856 25.92429888 21.8293457 27.72900391 C23.56437074 31.45788933 25.29122543 35.19039471 27.01220703 38.92578125 C30.49212045 46.46534646 34.06217409 53.96168782 37.63095093 61.45947266 C39.50386276 65.39764914 41.36939285 69.33931346 43.234375 73.28125 C43.59826828 74.05033691 43.96216156 74.81942383 44.33708191 75.61181641 C48.39807357 84.19866303 52.43741499 92.79567403 56.47744751 101.39239502 C61.93561586 113.00435565 67.42912553 124.59927865 72.9375 136.1875 C73.33421906 137.02218811 73.73093811 137.85687622 74.13967896 138.71685791 C75.74484433 142.09406491 77.35009907 145.47122941 78.95542908 148.84835815 C85.82880187 163.30827069 92.69580987 177.7711189 99.52954102 192.24981689 C100.55457938 194.42072508 101.58093141 196.59100859 102.60742188 198.76123047 C104.18543147 202.09938899 105.75710314 205.44045706 107.32354736 208.78405762 C108.16429723 210.57555868 109.01053894 212.36447921 109.85693359 214.15332031 C110.5967749 215.73838379 110.5967749 215.73838379 111.3515625 217.35546875 C111.78162598 218.27094482 112.21168945 219.1864209 112.65478516 220.12963867 C113.5625 222.4375 113.5625 222.4375 113.5625 225.4375 C105.3125 225.4375 97.0625 225.4375 88.5625 225.4375 C81.72891159 211.3810033 74.92452324 197.31668632 68.375 183.125 C63.07812592 171.64981246 57.68156549 160.22448819 52.25 148.8125 C44.62941376 132.79856709 37.05194893 116.76514627 29.51264954 100.71279907 C27.13520232 95.6522014 24.75039516 90.59510643 22.36328125 85.5390625 C14.9780648 69.89090081 7.65356992 54.22194891 0.5625 38.4375 C-1.75848884 40.75848884 -2.65798552 42.82038604 -4.01953125 45.80859375 C-4.53257812 46.92621094 -5.045625 48.04382813 -5.57421875 49.1953125 C-5.84669434 49.79375977 -6.11916992 50.39220703 -6.39990234 51.00878906 C-7.85680097 54.20710415 -9.32880836 57.39844463 -10.80078125 60.58984375 C-11.10343903 61.24661102 -11.4060968 61.9033783 -11.71792603 62.58004761 C-14.71544883 69.06921231 -17.81825813 75.50605387 -20.9375 81.9375 C-25.227041 90.7970446 -29.43608758 99.68832527 -33.5625 108.625 C-38.8623272 120.09871822 -44.2572809 131.52497662 -49.6875 142.9375 C-50.50220367 144.65014344 -51.31690092 146.36278993 -52.1315918 148.07543945 C-53.35721954 150.65186679 -54.58285364 153.2282911 -55.80857849 155.80467224 C-66.81985273 178.95417269 -77.73787101 202.14210524 -88.4375 225.4375 C-96.6875 225.4375 -104.9375 225.4375 -113.4375 225.4375 C-112.5652153 220.20379179 -111.59313402 217.24210987 -109.296875 212.6171875 C-108.97860748 211.96958466 -108.66033997 211.32198181 -108.33242798 210.65475464 C-107.64766548 209.26296043 -106.95949808 207.87283718 -106.26824951 206.48425293 C-104.42036125 202.77094405 -102.59828747 199.04498229 -100.7734375 195.3203125 C-100.4035672 194.56693604 -100.0336969 193.81355957 -99.65261841 193.03735352 C-96.27038589 186.1335515 -93.02374178 179.17260274 -89.8125 172.1875 C-85.45240531 162.7217533 -80.99045147 153.31149997 -76.4375 143.9375 C-71.84409407 134.47976171 -67.34169984 124.98529089 -62.9375 115.4375 C-58.53329893 105.88970644 -54.0308074 96.39528768 -49.4375 86.9375 C-44.82396775 77.43784301 -40.30097556 67.90144493 -35.875 58.3125 C-29.99080531 45.56909758 -23.95503146 32.90756547 -17.81347656 20.28613281 C-16.60303007 17.78019072 -15.41635762 15.26526206 -14.2421875 12.7421875 C-13.64068513 11.47392981 -13.03912931 10.20569747 -12.4375 8.9375 C-11.963125 7.9165625 -11.48875 6.895625 -11 5.84375 C-8.29993499 1.68564988 -4.90915697 0.00875073 0 0 Z " fill="#373334" transform="translate(825.4375,317.5625)"/>
<path d="M0 0 C1.0630787 -0.00679667 1.0630787 -0.00679667 2.14763373 -0.01373065 C4.53441617 -0.02644181 6.92097239 -0.02474998 9.30778503 -0.02310181 C11.01423437 -0.02908296 12.72068099 -0.03588754 14.42712402 -0.04345703 C19.07183567 -0.0611683 23.71647369 -0.06581461 28.36121583 -0.0670886 C32.23547959 -0.06898476 36.10972609 -0.07633918 39.98398322 -0.08343279 C49.12415257 -0.09973452 58.26428251 -0.10460019 67.40446472 -0.10317993 C76.83846489 -0.10197864 86.27223623 -0.12307394 95.70617849 -0.15466726 C103.7996592 -0.18080741 111.89306509 -0.19154815 119.9865877 -0.19026911 C124.82307797 -0.18975873 129.65936507 -0.19548369 134.49581337 -0.21662521 C139.04554381 -0.2359691 143.59487654 -0.23615856 148.1446209 -0.22159195 C149.81475021 -0.21949782 151.48490415 -0.22424065 153.15499115 -0.23631287 C155.43509557 -0.25172709 157.71382219 -0.24248407 159.99389648 -0.22705078 C161.26982572 -0.22814032 162.54575495 -0.22922985 163.8603487 -0.2303524 C167.73047422 0.34867365 169.3993067 1.58987202 172.18742371 4.26742554 C171.85742371 5.25742554 171.52742371 6.24742554 171.18742371 7.26742554 C170.50950177 6.45560979 169.83157984 5.64379404 169.13311481 4.80737782 C165.48468851 1.66148493 163.81545311 1.63860284 159.05636597 1.62818909 C158.34972284 1.61983341 157.64307971 1.61147773 156.91502315 1.60286885 C154.55308831 1.58096487 152.19271228 1.59453647 149.83073425 1.60800171 C148.13542502 1.59954777 146.4401255 1.58890332 144.74484253 1.57623291 C140.14597644 1.54806898 135.5475765 1.55056126 130.94865012 1.55852675 C126.14127443 1.56165005 121.33404766 1.53662266 116.5267334 1.51457214 C107.42496968 1.47710555 98.32335537 1.4649826 89.22152215 1.46194774 C78.85877434 1.45725975 68.49617647 1.42434476 58.13349473 1.38904989 C36.81815479 1.31708356 15.50287574 1.28059352 -5.81257629 1.26742554 C-6.08070129 1.90680054 -6.34882629 2.54617554 -6.62507629 3.20492554 C-7.81257629 5.26742554 -7.81257629 5.26742554 -10.81257629 6.26742554 C-8.12216941 0.50226793 -6.3389279 0.01666625 0 0 Z " fill="#72CAED" transform="translate(1576.8125762939453,318.7325744628906)"/>
<path d="M0 0 C1.38294718 0.01329757 2.76582404 0.03715018 4.1484375 0.0703125 C4.85484375 0.07933594 5.56125 0.08835937 6.2890625 0.09765625 C8.03399848 0.12123647 9.77876045 0.15710789 11.5234375 0.1953125 C11.5234375 0.5253125 11.5234375 0.8553125 11.5234375 1.1953125 C6.9034375 1.1953125 2.2834375 1.1953125 -2.4765625 1.1953125 C-3.1365625 2.5153125 -3.7965625 3.8353125 -4.4765625 5.1953125 C-5.4665625 5.5253125 -6.4565625 5.8553125 -7.4765625 6.1953125 C-4.70887019 0.26454327 -4.70887019 0.26454327 0 0 Z " fill="#86D4F0" transform="translate(1573.4765625,318.8046875)"/>
<path d="M0 0 C-1.04874998 2.62187494 -1.64931313 3.79371361 -4.125 5.25 C-4.74375 5.4975 -5.3625 5.745 -6 6 C-3.84615385 0 -3.84615385 0 0 0 Z " fill="#8C898A" transform="translate(1060,319)"/>
</svg>
